<?xml version="1.0" encoding="iso-8859-1"?>
<!-- Generator: Adobe Illustrator 26.0.1, SVG Export Plug-In . SVG Version: 6.00 Build 0)  -->
<svg version="1.1" id="Lager_2_00000070821068610671218110000014901485510963453578_"
	 xmlns="http://www.w3.org/2000/svg" xmlns:xlink="http://www.w3.org/1999/xlink" x="0px" y="0px" viewBox="0 0 364 133"
	 style="enable-background:new 0 0 364 133;" xml:space="preserve">
<g>
	<path d="M22,87.005C22,73.774,32.542,63.01,45.5,63.01 M45.5,63.011c12.958,0,23.5,10.764,23.5,23.995S58.458,111,45.5,111
		S22,100.236,22,87.005 M45.5,41.011C20.371,41.011,0,61.604,0,87.006C0,112.407,20.871,133,46,133s45-20.593,45-45.995
		S70.629,41.011,45.5,41.011L45.5,41.011z"/>
</g>
<g>
	<path d="M202.5,38.005C177.371,38.005,157,58.598,157,84h22c0-13.231,10.542-23.995,23.5-23.995S226,70.769,226,84h22
		C248,58.598,227.629,38.005,202.5,38.005z"/>
</g>
<g>
	<path style="fill:#FFFFFF;" d="M539-21.063"/>
	<path style="fill:#FFFFFF;" d="M470-21.063"/>
	<path d="M272.5,38.005C247.371,38.005,227,58.598,227,84h22c0-13.231,10.542-23.995,23.5-23.995S296,70.769,296,84h22
		C318,58.598,297.629,38.005,272.5,38.005z"/>
</g>
<g>
	<rect x="79" y="49" style="fill:#FFFFFF;" width="1" height="70"/>
	<polyline points="68,74.736 68,130 91,130 91,38 91,38 68,38 68,74.736 	"/>
</g>
<g>
	<rect x="167" y="49" style="fill:#FFFFFF;" width="1" height="70"/>
	<polygon points="179,38 156,38 156,130 179,130 	"/>
</g>
<g>
	<rect x="237" y="90" style="fill:#FFFFFF;" width="1" height="29"/>
	<polygon points="249,79 226,79 226,130 249,130 	"/>
</g>
<g>
	<path style="fill:#FFFFFF;" d="M307,119"/>
	<polygon points="318,79 296,79 296,130 318,130 	"/>
</g>
<g>
	<rect x="348" y="49" style="fill:#FFFFFF;" width="1" height="70"/>
	<polygon points="360,38 337,38 337,130 360,130 	"/>
</g>
<g>
	<rect x="123" y="14" style="fill:#FFFFFF;" width="1" height="105"/>
	<polygon points="135,3 112,3 112,130 135,130 	"/>
</g>
<g>
	<circle style="fill:#FFFFFF;" cx="349" cy="15" r="4"/>
	<path d="M349,0c-8.284,0-15,6.716-15,15s6.716,15,15,15s15-6.716,15-15S357.284,0,349,0L349,0z"/>
</g>
<radialGradient id="SVGID_1_" cx="43" cy="34.5" r="0.3536" gradientTransform="matrix(1 0 0 -1 0 130)" gradientUnits="userSpaceOnUse">
	<stop  offset="0.7388" style="stop-color:#FFFFFF;stop-opacity:0"/>
	<stop  offset="0.8057" style="stop-color:#FFFFFF;stop-opacity:0.4301"/>
	<stop  offset="0.8165" style="stop-color:#FFFFFF;stop-opacity:0.5"/>
	<stop  offset="0.8231" style="stop-color:#DBC01F"/>
	<stop  offset="0.8304" style="stop-color:#F1DC3A"/>
	<stop  offset="0.835" style="stop-color:#F5E13F"/>
	<stop  offset="0.8386" style="stop-color:#DBC01F"/>
	<stop  offset="0.8523" style="stop-color:#E1CB46"/>
	<stop  offset="0.872" style="stop-color:#E9D976"/>
	<stop  offset="0.8922" style="stop-color:#F0E4A0"/>
	<stop  offset="0.9126" style="stop-color:#F5EEC3"/>
	<stop  offset="0.9332" style="stop-color:#FAF5DD"/>
	<stop  offset="0.9543" style="stop-color:#FDFBF0"/>
	<stop  offset="0.976" style="stop-color:#FEFEFB"/>
	<stop  offset="0.9993" style="stop-color:#FFFFFF"/>
</radialGradient>
<path style="fill:url(#SVGID_1_);" d="M43,95.5c0,0.276,0,0.5,0,0.5S43,95.776,43,95.5s0-0.5,0-0.5S43,95.224,43,95.5z"/>
<linearGradient id="SVGID_00000014609388060629837410000011016686261082977177_" gradientUnits="userSpaceOnUse" x1="28" y1="63" x2="28" y2="63" gradientTransform="matrix(1 0 0 -1 0 130)">
	<stop  offset="0.7388" style="stop-color:#FFFFFF;stop-opacity:0"/>
	<stop  offset="0.8057" style="stop-color:#FFFFFF;stop-opacity:0.4301"/>
	<stop  offset="0.8165" style="stop-color:#FFFFFF;stop-opacity:0.5"/>
	<stop  offset="0.8231" style="stop-color:#DBC01F"/>
	<stop  offset="0.8304" style="stop-color:#F1DC3A"/>
	<stop  offset="0.835" style="stop-color:#F5E13F"/>
	<stop  offset="0.8386" style="stop-color:#DBC01F"/>
	<stop  offset="0.8523" style="stop-color:#E1CB46"/>
	<stop  offset="0.872" style="stop-color:#E9D976"/>
	<stop  offset="0.8922" style="stop-color:#F0E4A0"/>
	<stop  offset="0.9126" style="stop-color:#F5EEC3"/>
	<stop  offset="0.9332" style="stop-color:#FAF5DD"/>
	<stop  offset="0.9543" style="stop-color:#FDFBF0"/>
	<stop  offset="0.976" style="stop-color:#FEFEFB"/>
	<stop  offset="0.9993" style="stop-color:#FFFFFF"/>
</linearGradient>
<path style="fill:url(#SVGID_00000014609388060629837410000011016686261082977177_);" d="M28,67c0-0.552,0-1,0-1S28,66.448,28,67
	s0,1,0,1S28,67.552,28,67z"/>
</svg>
