<?xml version="1.0" encoding="iso-8859-1"?>
<!-- Generator: Adobe Illustrator 26.0.1, SVG Export Plug-In . SVG Version: 6.00 Build 0)  -->
<svg version="1.1" id="Lager_1" xmlns="http://www.w3.org/2000/svg" xmlns:xlink="http://www.w3.org/1999/xlink" x="0px" y="0px"
	 viewBox="0 0 150 50" style="enable-background:new 0 0 150 50;" xml:space="preserve">
<g>
	<path style="fill:#FFFFFF;" d="M149,1v48H1V1H149 M150,0H0v50h150V0L150,0z"/>
</g>
<g>
	<path style="fill:#FFFFFF;" d="M30.432,29.594l-1.207-3.187h-5.33l-1.206,3.187h-1.71l4.717-12.406h1.729l4.717,12.406H30.432z
		 M24.436,24.966h4.249l-2.125-5.636L24.436,24.966z"/>
	<path style="fill:#FFFFFF;" d="M41.286,24.732v4.861h-1.566v-4.771c0-1.404-0.864-2.305-2.035-2.305s-2.575,0.702-2.575,2.521
		v4.555h-1.567v-8.409h1.567v1.279c0.504-1.026,1.873-1.495,2.791-1.495C39.989,20.969,41.304,22.374,41.286,24.732z"/>
	<path style="fill:#FFFFFF;" d="M43.227,27.127h1.458c0.018,0.72,0.648,1.314,1.674,1.314c1.062,0,1.693-0.522,1.693-1.207
		c0-0.63-0.486-0.954-1.152-1.098l-1.152-0.27c-1.405-0.378-2.215-1.062-2.215-2.413c0-1.387,1.188-2.485,2.881-2.485
		c1.422,0,2.899,0.756,2.899,2.449H47.8c-0.018-0.648-0.684-1.081-1.35-1.081c-0.811,0-1.351,0.522-1.351,1.17
		c0,0.576,0.54,0.882,1.081,1.008l1.242,0.306c1.747,0.432,2.197,1.477,2.197,2.431c0,1.566-1.513,2.557-3.259,2.557
		C44.848,29.81,43.299,28.855,43.227,27.127z"/>
	<path style="fill:#FFFFFF;" d="M51.147,25.38c0-2.665,1.999-4.411,4.393-4.411s4.411,1.747,4.411,4.411
		c0,2.665-2.017,4.429-4.411,4.429S51.147,28.045,51.147,25.38z M58.385,25.38c0-1.729-1.296-2.935-2.845-2.935
		c-1.53,0-2.809,1.206-2.809,2.935c0,1.747,1.279,2.953,2.809,2.953C57.089,28.333,58.385,27.127,58.385,25.38z M52.768,18.701
		c0-0.594,0.486-1.026,1.099-1.026c0.576,0,1.062,0.432,1.062,1.026s-0.486,1.044-1.062,1.044
		C53.254,19.745,52.768,19.295,52.768,18.701z M56.171,18.701c0-0.594,0.486-1.026,1.08-1.026s1.099,0.432,1.099,1.026
		s-0.504,1.044-1.099,1.044S56.171,19.295,56.171,18.701z"/>
	<path style="fill:#FFFFFF;" d="M69.671,29.594h-2.106l-3.871-4.105v4.105h-1.567V16.612h1.567v7.544l2.917-2.971h2.179
		l-3.601,3.637L69.671,29.594z"/>
	<path style="fill:#FFFFFF;" d="M74.511,25.38c0-2.665,1.999-4.411,4.394-4.411s4.411,1.747,4.411,4.411
		c0,2.665-2.017,4.429-4.411,4.429S74.511,28.045,74.511,25.38z M81.749,25.38c0-1.729-1.296-2.935-2.845-2.935
		c-1.53,0-2.809,1.206-2.809,2.935c0,1.747,1.278,2.953,2.809,2.953C80.453,28.333,81.749,27.127,81.749,25.38z"/>
	<path style="fill:#FFFFFF;" d="M98.725,24.732v4.861h-1.567v-4.771c0-1.404-0.774-2.341-1.999-2.341
		c-1.494-0.018-2.269,1.026-2.269,2.899v4.213h-1.566v-4.771c0-1.422-0.774-2.341-1.891-2.341c-1.188,0-2.376,0.774-2.376,2.557
		v4.555h-1.566v-8.409h1.566v1.296c0.414-0.918,1.512-1.512,2.701-1.512c1.224,0,2.287,0.648,2.773,1.8
		c0.774-1.512,2.088-1.8,2.935-1.8C97.573,20.969,98.725,22.374,98.725,24.732z"/>
	<path style="fill:#FFFFFF;" d="M105.885,29.594V16.612h1.566v12.982H105.885z"/>
	<path style="fill:#FFFFFF;" d="M116.794,21.185h1.567v8.409h-1.567v-1.495c-0.558,1.008-1.729,1.71-3.079,1.71
		c-2.197,0-4.124-1.854-4.124-4.429c0-2.485,1.819-4.411,4.195-4.411c1.261,0,2.449,0.54,3.007,1.53V21.185z M116.794,25.38
		c0-1.729-1.458-2.935-2.863-2.935c-1.53,0-2.754,1.35-2.754,2.935c0,1.603,1.224,2.953,2.772,2.953
		C115.444,28.333,116.794,27.091,116.794,25.38z M112.365,18.125c0-1.062,0.811-1.891,1.854-1.891c1.062,0,1.891,0.828,1.891,1.891
		c0,1.044-0.828,1.854-1.891,1.854C113.175,19.979,112.365,19.168,112.365,18.125z M113.283,18.125c0,0.522,0.414,0.936,0.936,0.936
		c0.541,0,0.973-0.414,0.973-0.936c0-0.541-0.432-0.955-0.973-0.955C113.697,17.17,113.283,17.584,113.283,18.125z"/>
	<path style="fill:#FFFFFF;" d="M128.836,24.732v4.861h-1.566v-4.771c0-1.404-0.864-2.305-2.035-2.305s-2.575,0.702-2.575,2.521
		v4.555h-1.567v-8.409h1.567v1.279c0.504-1.026,1.873-1.495,2.791-1.495C127.54,20.969,128.854,22.374,128.836,24.732z"/>
</g>
</svg>
