<?xml version="1.0" encoding="iso-8859-1"?>
<!-- Generator: Adobe Illustrator 26.0.1, SVG Export Plug-In . SVG Version: 6.00 Build 0)  -->
<svg version="1.1" id="Lager_1" xmlns="http://www.w3.org/2000/svg" xmlns:xlink="http://www.w3.org/1999/xlink" x="0px" y="0px"
	 viewBox="0 0 204 207" style="enable-background:new 0 0 204 207;" xml:space="preserve">
<g id="Group_109" transform="translate(0 195.509) rotate(-75)">
	<g>
		<defs>
			
				<rect id="SVGID_1_" x="13.291" y="-26.165" transform="matrix(0.2588 -0.9659 0.9659 0.2588 13.5693 165.2963)" width="202.405" height="199.942"/>
		</defs>
		<clipPath id="SVGID_00000035526344253739618130000014217656113841858473_">
			<use xlink:href="#SVGID_1_"  style="overflow:visible;"/>
		</clipPath>
		<g id="Group_107" style="clip-path:url(#SVGID_00000035526344253739618130000014217656113841858473_);">
			<path id="Path_19" style="fill:#CD9BD7;" d="M42.811,3.237L42.811,3.237c19.038-18.864,44.765-29.433,71.566-29.4l0,45.609
				c-14.596-0.034-28.614,5.701-39,15.957C65.041,45.556,59.22,59.438,59.224,73.927l-45.93,0v-0.119
				C13.285,47.281,23.918,21.859,42.811,3.237"/>
			<path id="Path_20" style="fill:#FFCD32;" d="M75.374,112.45l-32.442,32.047c-18.939-18.601-29.618-44.026-29.641-70.572h45.93
				C59.217,88.414,65.038,102.297,75.374,112.45"/>
			<path id="Path_21" style="fill:#870AA0;" d="M186.055,3.115L153.373,35.4c-10.386-10.256-24.404-15.991-39-15.957v-45.608h0.12
				C141.276-26.227,166.998-15.702,186.055,3.115 M42.932,144.496l32.442-32.047c21.647,21.276,56.353,21.276,78,0
				c21.277-20.911,21.573-55.111,0.663-76.387c-0.219-0.223-0.44-0.444-0.663-0.663l32.681-32.284
				c18.966,18.631,29.647,44.104,29.641,70.691v0.119c-0.028,26.604-10.754,52.078-29.764,70.69
				c-19.048,18.745-44.718,29.223-71.442,29.161h-0.12C87.631,173.806,61.959,163.284,42.932,144.496"/>
		</g>
	</g>
</g>
</svg>
