<?xml version="1.0" encoding="iso-8859-1"?>
<!-- Generator: Adobe Illustrator 26.0.1, SVG Export Plug-In . SVG Version: 6.00 Build 0)  -->
<svg version="1.1" id="Lager_1" xmlns="http://www.w3.org/2000/svg" xmlns:xlink="http://www.w3.org/1999/xlink" x="0px" y="0px"
	 viewBox="0 0 149.213 50" style="enable-background:new 0 0 149.213 50;" xml:space="preserve">
<g id="Rectangle_115">
	<g id="Rectangle_115-2">
		<rect x="-0.501" style="fill:#870AA0;" width="150" height="50"/>
	</g>
	<g id="Logga_in">
		<g style="enable-background:new    ;">
			<path style="fill:#FFFFFF;" d="M37.961,30.286V17.663h1.896v11.132h7.058v1.489L37.961,30.286L37.961,30.286z"/>
			<path style="fill:#FFFFFF;" d="M56.504,29.158c-0.651,0.489-1.279,0.832-1.881,1.033c-0.603,0.201-1.25,0.302-1.94,0.302
				c-1.141,0-2.017-0.245-2.63-0.736c-0.612-0.491-0.919-1.118-0.919-1.882c0-0.448,0.116-0.858,0.347-1.227
				c0.231-0.369,0.534-0.668,0.909-0.891c0.375-0.224,0.797-0.393,1.266-0.508c0.345-0.081,0.866-0.158,1.564-0.233
				c1.42-0.149,2.466-0.326,3.138-0.533c0.006-0.212,0.01-0.347,0.01-0.404c0-0.632-0.166-1.077-0.499-1.334
				c-0.45-0.35-1.118-0.525-2.004-0.525c-0.828,0-1.438,0.128-1.833,0.383c-0.394,0.255-0.686,0.708-0.875,1.356l-1.721-0.206
				c0.156-0.648,0.414-1.173,0.772-1.571c0.358-0.399,0.876-0.707,1.554-0.922s1.463-0.323,2.356-0.323
				c0.886,0,1.606,0.091,2.16,0.275c0.554,0.183,0.961,0.415,1.222,0.693c0.261,0.278,0.443,0.63,0.548,1.054
				c0.059,0.265,0.088,0.741,0.088,1.43v2.066c0,1.441,0.037,2.353,0.112,2.733c0.075,0.382,0.223,0.748,0.445,1.098h-1.838
				C56.673,29.964,56.556,29.589,56.504,29.158z M56.357,25.696c-0.639,0.231-1.597,0.425-2.874,0.586
				c-0.723,0.091-1.235,0.196-1.535,0.311c-0.3,0.115-0.531,0.282-0.694,0.504c-0.163,0.221-0.245,0.466-0.245,0.736
				c0,0.414,0.178,0.758,0.533,1.034c0.355,0.275,0.875,0.413,1.56,0.413c0.677,0,1.28-0.13,1.808-0.391s0.916-0.618,1.164-1.073
				c0.189-0.35,0.283-0.867,0.283-1.55C56.357,26.265,56.357,25.696,56.357,25.696z M51.177,19.351v-1.766h1.837v1.766H51.177z
				 M54.823,19.351v-1.766h1.838v1.766H54.823z"/>
			<path style="fill:#FFFFFF;" d="M60.94,27.556l1.74-0.241c0.098,0.614,0.37,1.085,0.816,1.412s1.07,0.491,1.872,0.491
				c0.808,0,1.407-0.145,1.799-0.435c0.391-0.289,0.586-0.63,0.586-1.02c0-0.35-0.173-0.626-0.518-0.826
				c-0.241-0.138-0.841-0.312-1.799-0.525c-1.29-0.287-2.185-0.535-2.684-0.746c-0.498-0.209-0.876-0.499-1.134-0.869
				s-0.386-0.779-0.386-1.226c0-0.408,0.105-0.785,0.317-1.132s0.5-0.636,0.865-0.865c0.273-0.178,0.646-0.329,1.119-0.453
				c0.473-0.124,0.979-0.185,1.521-0.185c0.814,0,1.529,0.104,2.146,0.311c0.615,0.206,1.07,0.487,1.363,0.839
				s0.495,0.825,0.606,1.416l-1.721,0.207c-0.078-0.471-0.305-0.839-0.68-1.103s-0.904-0.396-1.588-0.396
				c-0.809,0-1.385,0.118-1.73,0.353c-0.345,0.235-0.519,0.511-0.519,0.826c0,0.201,0.072,0.382,0.216,0.542
				c0.143,0.166,0.368,0.304,0.674,0.413c0.176,0.058,0.694,0.19,1.555,0.396c1.244,0.293,2.113,0.532,2.605,0.718
				c0.491,0.187,0.878,0.458,1.158,0.814s0.42,0.797,0.42,1.326c0,0.517-0.171,1.004-0.513,1.46
				c-0.343,0.456-0.836,0.81-1.481,1.059c-0.645,0.249-1.375,0.375-2.189,0.375c-1.349,0-2.377-0.246-3.084-0.74
				C61.585,29.258,61.136,28.526,60.94,27.556z"/>
			<path style="fill:#FFFFFF;" d="M78.778,30.286v-9.145h1.574v1.283c0.325-0.448,0.759-0.808,1.3-1.08
				c0.541-0.274,1.156-0.41,1.848-0.41c0.769,0,1.399,0.14,1.892,0.422c0.492,0.281,0.839,0.675,1.041,1.18
				c0.821-1.068,1.89-1.602,3.206-1.602c1.029,0,1.821,0.251,2.376,0.754c0.554,0.502,0.83,1.275,0.83,2.32v6.277h-1.749v-5.76
				c0-0.62-0.058-1.067-0.172-1.339c-0.113-0.274-0.32-0.493-0.62-0.659c-0.3-0.167-0.652-0.25-1.056-0.25
				c-0.73,0-1.336,0.214-1.818,0.641s-0.724,1.112-0.724,2.054v5.313h-1.76v-5.941c0-0.689-0.143-1.205-0.43-1.55
				s-0.756-0.517-1.408-0.517c-0.495,0-0.952,0.115-1.373,0.345c-0.42,0.23-0.725,0.566-0.914,1.007
				c-0.188,0.442-0.283,1.079-0.283,1.912v4.744L78.778,30.286L78.778,30.286z"/>
			<path style="fill:#FFFFFF;" d="M103.342,27.34l1.818,0.199c-0.287,0.935-0.818,1.662-1.594,2.178
				c-0.776,0.516-1.766,0.775-2.972,0.775c-1.519,0-2.723-0.411-3.612-1.235c-0.889-0.824-1.334-1.979-1.334-3.466
				c0-1.539,0.449-2.732,1.349-3.582c0.9-0.85,2.066-1.275,3.5-1.275c1.388,0,2.521,0.417,3.401,1.249
				c0.88,0.832,1.32,2.003,1.32,3.512c0,0.092-0.004,0.231-0.01,0.414h-7.742c0.064,1.005,0.388,1.774,0.968,2.308
				c0.58,0.534,1.303,0.801,2.17,0.801c0.646,0,1.196-0.15,1.652-0.448C102.712,28.473,103.075,27.995,103.342,27.34z
				 M97.565,24.835h5.797c-0.078-0.768-0.3-1.346-0.665-1.731c-0.561-0.597-1.287-0.896-2.18-0.896
				c-0.809,0-1.487,0.238-2.038,0.714C97.928,23.399,97.624,24.038,97.565,24.835z"/>
			<path style="fill:#FFFFFF;" d="M108.131,30.286v-9.145h1.583v1.387c0.404-0.648,0.777-1.077,1.119-1.283
				c0.343-0.206,0.719-0.311,1.129-0.311c0.594,0,1.196,0.167,1.809,0.499l-0.605,1.439c-0.431-0.225-0.86-0.336-1.291-0.336
				c-0.384,0-0.729,0.102-1.036,0.306c-0.306,0.203-0.524,0.486-0.654,0.848c-0.196,0.551-0.294,1.153-0.294,1.808v4.788
				C109.891,30.286,108.131,30.286,108.131,30.286z"/>
		</g>
	</g>
</g>
</svg>
