<?xml version="1.0" encoding="iso-8859-1"?>
<!-- Generator: Adobe Illustrator 26.0.1, SVG Export Plug-In . SVG Version: 6.00 Build 0)  -->
<svg version="1.1" id="Lager_1" xmlns="http://www.w3.org/2000/svg" xmlns:xlink="http://www.w3.org/1999/xlink" x="0px" y="0px"
	 viewBox="0 0 161 57" style="enable-background:new 0 0 161 57;" xml:space="preserve">
<g id="Rectangle_115">
	<g id="Rectangle_115-2">
		<rect style="fill:#870AA0;" width="161.04" height="57"/>
	</g>
	<g id="Logga_in">
		<g style="enable-background:new    ;">
			<path style="fill:#FFFFFF;" d="M20.004,35.394v-14.39H21.9v12.691h7.058v1.698H20.004z"/>
			<path style="fill:#FFFFFF;" d="M30.336,30.182c0-1.931,0.535-3.36,1.604-4.29c0.893-0.772,1.981-1.158,3.265-1.158
				c1.427,0,2.594,0.47,3.5,1.409s1.359,2.236,1.359,3.892c0,1.342-0.2,2.396-0.601,3.165c-0.401,0.77-0.984,1.366-1.75,1.792
				c-0.766,0.425-1.602,0.638-2.507,0.638c-1.453,0-2.628-0.468-3.524-1.403S30.336,31.941,30.336,30.182z M32.145,30.182
				c0,1.335,0.29,2.334,0.87,2.998s1.31,0.996,2.189,0.996c0.874,0,1.6-0.333,2.18-1.001c0.58-0.667,0.87-1.685,0.87-3.053
				c0-1.289-0.292-2.265-0.875-2.929c-0.583-0.665-1.309-0.997-2.175-0.997c-0.88,0-1.609,0.331-2.189,0.991
				C32.435,27.849,32.145,28.847,32.145,30.182z"/>
			<path style="fill:#FFFFFF;" d="M41.803,36.257l1.711,0.256c0.071,0.529,0.27,0.916,0.596,1.158
				c0.437,0.327,1.033,0.49,1.789,0.49c0.815,0,1.443-0.163,1.887-0.49c0.443-0.328,0.743-0.785,0.899-1.375
				c0.091-0.359,0.133-1.115,0.127-2.267c-0.769,0.909-1.727,1.364-2.874,1.364c-1.427,0-2.532-0.518-3.313-1.551
				c-0.782-1.034-1.173-2.274-1.173-3.721c0-0.994,0.179-1.912,0.538-2.753c0.358-0.841,0.878-1.49,1.56-1.948
				c0.681-0.458,1.481-0.687,2.399-0.687c1.226,0,2.235,0.498,3.031,1.492v-1.256h1.623v9.01c0,1.623-0.165,2.773-0.494,3.45
				c-0.329,0.678-0.851,1.213-1.564,1.605c-0.714,0.393-1.592,0.589-2.635,0.589c-1.238,0-2.238-0.28-3.001-0.84
				C42.145,38.226,41.777,37.383,41.803,36.257z M43.259,29.995c0,1.367,0.271,2.365,0.812,2.993
				c0.541,0.628,1.218,0.942,2.033,0.942c0.808,0,1.486-0.312,2.033-0.938s0.821-1.604,0.821-2.939c0-1.276-0.282-2.238-0.846-2.886
				c-0.564-0.647-1.243-0.972-2.038-0.972c-0.782,0-1.447,0.319-1.994,0.957S43.259,28.739,43.259,29.995z"/>
			<path style="fill:#FFFFFF;" d="M52.937,36.257l1.711,0.256c0.071,0.529,0.27,0.916,0.596,1.158
				c0.437,0.327,1.033,0.49,1.789,0.49c0.815,0,1.443-0.163,1.887-0.49c0.443-0.328,0.743-0.785,0.899-1.375
				c0.091-0.359,0.133-1.115,0.127-2.267c-0.769,0.909-1.727,1.364-2.874,1.364c-1.427,0-2.532-0.518-3.313-1.551
				c-0.782-1.034-1.173-2.274-1.173-3.721c0-0.994,0.179-1.912,0.538-2.753c0.358-0.841,0.878-1.49,1.56-1.948
				c0.681-0.458,1.481-0.687,2.399-0.687c1.226,0,2.235,0.498,3.031,1.492v-1.256h1.623v9.01c0,1.623-0.165,2.773-0.494,3.45
				c-0.329,0.678-0.851,1.213-1.564,1.605c-0.714,0.393-1.592,0.589-2.635,0.589c-1.238,0-2.238-0.28-3.001-0.84
				C53.279,38.226,52.911,37.383,52.937,36.257z M54.394,29.995c0,1.367,0.271,2.365,0.812,2.993
				c0.541,0.628,1.218,0.942,2.033,0.942c0.808,0,1.486-0.312,2.033-0.938s0.821-1.604,0.821-2.939c0-1.276-0.282-2.238-0.846-2.886
				c-0.564-0.647-1.243-0.972-2.038-0.972c-0.782,0-1.447,0.319-1.994,0.957S54.394,28.739,54.394,29.995z"/>
			<path style="fill:#FFFFFF;" d="M71.167,34.107c-0.651,0.557-1.279,0.949-1.881,1.178c-0.603,0.229-1.25,0.344-1.94,0.344
				c-1.141,0-2.017-0.279-2.63-0.839c-0.612-0.56-0.919-1.274-0.919-2.146c0-0.51,0.116-0.977,0.347-1.398s0.534-0.761,0.909-1.016
				c0.375-0.255,0.797-0.448,1.266-0.579c0.345-0.092,0.866-0.18,1.564-0.266c1.42-0.17,2.466-0.372,3.138-0.608
				c0.006-0.242,0.01-0.396,0.01-0.461c0-0.72-0.166-1.227-0.499-1.521c-0.45-0.399-1.118-0.599-2.004-0.599
				c-0.828,0-1.438,0.146-1.833,0.437c-0.394,0.291-0.686,0.807-0.875,1.546L64.1,27.943c0.156-0.739,0.414-1.336,0.772-1.791
				c0.358-0.455,0.876-0.805,1.554-1.05c0.678-0.246,1.463-0.368,2.356-0.368c0.886,0,1.606,0.104,2.16,0.314
				c0.554,0.209,0.961,0.473,1.222,0.79c0.261,0.318,0.443,0.718,0.548,1.203c0.059,0.301,0.088,0.844,0.088,1.629v2.355
				c0,1.643,0.037,2.682,0.112,3.116c0.075,0.436,0.223,0.853,0.445,1.252H71.52C71.337,35.027,71.22,34.599,71.167,34.107z
				 M71.021,30.161c-0.639,0.263-1.597,0.484-2.874,0.668c-0.723,0.104-1.235,0.223-1.535,0.354s-0.531,0.322-0.694,0.574
				c-0.163,0.252-0.245,0.531-0.245,0.839c0,0.472,0.178,0.864,0.533,1.178c0.355,0.314,0.875,0.472,1.56,0.472
				c0.677,0,1.28-0.149,1.808-0.447c0.528-0.297,0.916-0.705,1.164-1.222c0.189-0.399,0.283-0.988,0.283-1.767V30.161z"/>
			<path style="fill:#FFFFFF;" d="M81.1,23.036v-2.032h1.76v2.032H81.1z M81.1,35.394V24.969h1.76v10.424H81.1z"/>
			<path style="fill:#FFFFFF;" d="M85.538,35.394V24.969h1.583v1.482c0.763-1.145,1.864-1.718,3.305-1.718
				c0.625,0,1.2,0.113,1.725,0.338c0.524,0.226,0.918,0.522,1.179,0.889c0.26,0.366,0.442,0.801,0.547,1.305
				c0.065,0.328,0.098,0.9,0.098,1.718v6.41h-1.76v-6.341c0-0.72-0.068-1.258-0.205-1.615c-0.137-0.356-0.38-0.641-0.729-0.854
				c-0.349-0.212-0.757-0.319-1.227-0.319c-0.749,0-1.396,0.239-1.94,0.716c-0.544,0.478-0.816,1.384-0.816,2.719v5.693H85.538z"/>
		</g>
	</g>
	<g id="Icon_material-lock-outline">
		<path style="fill:#FFFFFF;" d="M130.488,34.278c1.659,0,3.003-1.35,3.003-3.015s-1.344-3.015-3.003-3.015
			c-1.659,0-3.003,1.35-3.003,3.015S128.83,34.278,130.488,34.278z M139.497,20.719h-1.501v-3.015c0-4.163-3.361-7.538-7.507-7.538
			c-4.146,0-7.507,3.375-7.507,7.538v3.015h-1.501c-1.659,0-3.003,1.35-3.003,3.015v15.077c0,1.665,1.344,3.015,3.003,3.015h18.018
			c1.659,0,3.003-1.35,3.003-3.015V23.734C142.5,22.069,141.156,20.719,139.497,20.719z M125.834,17.703
			c0.003-2.581,2.089-4.672,4.659-4.669c2.567,0.003,4.647,2.091,4.65,4.669v3.015h-9.309V17.703z M139.497,38.811h-18.018V23.734
			h18.018V38.811z"/>
	</g>
</g>
</svg>
